<?xml version="1.0" standalone="no"?>
<!DOCTYPE svg PUBLIC "-//W3C//DTD SVG 20010904//EN"
 "http://www.w3.org/TR/2001/REC-SVG-20010904/DTD/svg10.dtd">
<svg version="1.0" xmlns="http://www.w3.org/2000/svg"
 width="336.000000pt" height="404.000000pt" viewBox="0 0 336.000000 404.000000"
 preserveAspectRatio="xMidYMid meet">

<g transform="translate(0.000000,404.000000) scale(0.100000,-0.100000)"
fill="#000000" stroke="none">
<path d="M1099 4024 c-7 -8 -30 -24 -51 -35 -48 -25 -148 -114 -167 -148 -7
-14 -30 -44 -51 -66 -45 -48 -108 -162 -172 -307 -26 -60 -62 -127 -81 -150
-46 -58 -44 -54 -89 -186 -21 -65 -46 -134 -56 -155 l-17 -38 -73 3 c-71 2
-73 2 -92 -27 -24 -36 -25 -76 -4 -117 14 -27 18 -29 26 -15 6 12 22 17 50 17
31 0 39 3 35 14 -8 21 19 42 36 27 10 -8 16 -56 20 -173 5 -122 12 -182 28
-238 12 -41 23 -102 25 -135 2 -33 6 -83 10 -110 l6 -50 -46 -33 c-25 -18 -50
-41 -56 -51 -15 -29 -32 -240 -25 -309 10 -94 39 -191 85 -280 25 -48 45 -104
51 -143 11 -72 42 -124 101 -171 50 -39 61 -62 92 -188 52 -211 143 -337 396
-549 204 -172 288 -226 457 -295 156 -64 226 -79 363 -79 96 0 130 5 205 27
89 27 135 49 135 65 0 4 -10 13 -23 20 -18 10 -28 9 -52 -3 -37 -20 -53 -20
-97 -2 -43 19 -50 28 -72 99 -9 31 -22 57 -27 57 -6 0 -15 14 -20 30 -6 17
-17 30 -24 30 -26 0 -28 23 -4 41 52 41 140 83 262 124 183 61 224 105 152
162 -50 40 -91 51 -145 41 -53 -11 -104 -5 -148 17 -47 24 -51 44 -8 36 10 -2
48 11 103 35 17 8 40 14 51 14 12 0 23 4 26 9 5 7 95 24 186 35 19 2 43 7 53
11 22 9 42 45 30 54 -15 9 -24 41 -12 41 6 0 8 4 5 9 -11 17 -75 22 -143 10
-37 -6 -75 -12 -83 -12 -25 1 -135 15 -139 19 -1 1 -14 -1 -27 -6 -15 -6 -26
-6 -30 1 -3 6 -23 18 -42 26 l-36 15 44 40 c25 22 59 53 75 68 34 31 69 45 87
34 12 -8 69 -6 77 2 2 2 6 29 8 61 3 44 12 70 36 105 35 53 42 55 75 32 19
-13 28 -14 53 -4 49 21 89 75 89 120 0 45 1 44 -34 30 -23 -9 -31 -4 -79 43
-28 29 -77 75 -108 102 -30 28 -66 66 -80 85 -13 19 -27 37 -31 40 -3 3 -18
31 -32 62 -27 58 -34 116 -16 134 11 11 1 114 -11 114 -5 0 -9 23 -9 52 0 37
-5 58 -19 72 -40 44 -61 99 -61 159 l0 58 43 19 c23 11 53 20 67 20 43 0 7 20
-48 27 -44 5 -53 10 -58 29 -4 13 -3 36 2 52 4 15 6 32 5 38 -4 27 94 32 142
8 64 -33 69 -41 61 -114 -3 -36 -10 -72 -15 -81 -9 -18 33 -127 58 -149 10 -8
19 -30 19 -48 1 -18 14 -62 28 -98 15 -37 33 -95 42 -130 11 -49 29 -84 78
-151 34 -49 82 -103 105 -120 51 -39 127 -63 195 -62 l51 1 -50 9 c-157 26
-254 102 -323 253 -39 83 -41 101 -9 92 12 -3 42 -9 67 -12 27 -4 59 -18 82
-35 49 -38 62 -38 54 2 -3 18 -1 38 5 45 6 8 9 20 6 28 -9 22 88 31 119 11 34
-22 39 -20 60 27 14 31 19 64 18 118 -2 106 -28 152 -116 202 -16 9 -38 24
-49 34 -18 16 -17 17 19 35 47 22 172 50 172 38 0 -5 5 -9 10 -9 15 0 12 24
-11 77 -26 60 -86 150 -108 158 -14 6 -13 8 4 15 54 23 186 -10 268 -67 66
-45 75 -47 32 -8 -51 47 -101 72 -167 86 -29 5 -64 15 -77 20 -23 9 -125 23
-273 36 -32 2 -79 0 -105 -6 -26 -7 -53 -13 -60 -14 -16 -4 -83 -76 -84 -90
-2 -30 -9 -50 -23 -66 -9 -10 -13 -20 -10 -24 11 -11 -41 4 -88 26 -26 12 -47
28 -48 36 0 9 -4 10 -12 4 -19 -15 -57 -22 -63 -13 -3 4 2 11 11 14 13 5 11
12 -13 43 -15 21 -34 43 -42 49 -8 6 -16 19 -17 28 -4 31 -56 96 -80 102 -13
4 -24 10 -24 15 0 5 -25 21 -55 34 -30 14 -59 34 -65 45 -13 24 -155 118 -190
126 -14 2 -38 11 -53 19 -16 8 -40 15 -53 15 -14 0 -40 11 -58 25 -18 14 -37
25 -43 25 -6 0 -27 11 -47 25 -21 14 -42 23 -47 20 -5 -4 -9 -1 -9 5 0 6 -5 8
-10 5 -6 -3 -13 1 -16 9 -3 9 -12 16 -19 16 -7 0 -15 9 -18 20 -3 11 0 18 6
17 6 -1 16 8 22 20 7 13 15 20 18 17 3 -4 9 6 13 21 5 20 11 25 25 22 12 -3
19 0 19 9 0 8 5 14 11 14 6 0 9 9 6 20 -3 11 -1 18 4 14 5 -3 9 2 9 11 0 10 5
13 12 9 7 -4 8 -3 4 4 -4 7 6 24 22 40 15 15 27 33 25 39 -2 6 1 15 8 19 8 5
9 3 4 -6 -5 -9 -4 -11 3 -6 15 9 16 52 2 61 -8 5 -8 31 -1 77 3 17 70 19 100
4 17 -9 50 -21 74 -26 23 -5 69 -18 101 -29 33 -12 72 -21 88 -21 16 0 43 -8
61 -17 38 -20 211 -30 231 -14 9 8 28 0 67 -25 83 -53 142 -80 147 -66 2 7 8
10 13 6 5 -3 9 0 9 5 0 32 73 -8 167 -93 44 -40 67 -70 130 -174 21 -34 24
-24 12 49 -13 85 -83 273 -119 318 -15 20 -40 61 -56 91 -50 100 -93 156 -142
183 -26 14 -62 44 -80 66 l-34 41 -538 0 c-477 0 -539 -2 -551 -16z m-639
-1078 c0 -2 -7 -7 -16 -10 -8 -3 -12 -2 -9 4 6 10 25 14 25 6z m1368 -58 c16
-16 15 -48 -2 -48 -20 0 -39 27 -32 45 7 18 18 19 34 3z m-480 -128 c-7 -11
-22 -19 -33 -19 -17 1 -18 2 -2 6 14 4 16 8 6 19 -9 11 -7 14 15 14 24 0 25
-2 14 -20z m628 -76 c-9 -8 -16 -20 -16 -25 0 -14 -34 -11 -56 5 -18 14 -18
15 11 21 17 4 35 8 40 10 27 9 36 5 21 -11z m403 -80 c5 -4 -30 -33 -40 -34
-3 0 -11 12 -18 26 -11 25 -11 26 21 19 18 -4 35 -9 37 -11z m-1049 -108 c0
-11 -19 -15 -25 -6 -3 5 1 10 9 10 9 0 16 -2 16 -4z m48 -87 c38 -45 52 -72
42 -84 -6 -7 -1 -11 12 -12 11 -1 45 -9 74 -19 43 -13 55 -22 63 -46 6 -16 19
-41 31 -55 28 -36 25 -56 -14 -97 -36 -39 -69 -46 -97 -20 -12 10 -36 16 -71
16 -37 0 -47 2 -33 8 34 13 43 32 46 99 3 62 1 65 -31 92 -18 16 -37 26 -42
23 -4 -3 -8 -1 -8 4 0 5 -14 12 -30 16 -27 5 -30 8 -24 33 5 23 39 70 52 72 2
1 15 -13 30 -30z m-745 -223 c29 -45 88 -113 149 -171 55 -53 98 -99 95 -101
-12 -13 -76 34 -156 114 -82 83 -138 168 -171 257 l-10 30 22 -27 c13 -14 45
-60 71 -102z m1980 107 c-7 -2 -19 -2 -25 0 -7 3 -2 5 12 5 14 0 19 -2 13 -5z
m-208 -73 c-3 -5 -15 -10 -25 -10 -10 0 -22 5 -25 10 -4 6 7 10 25 10 18 0 29
-4 25 -10z m303 -65 c-2 -15 -10 -20 -31 -18 -15 1 -25 -2 -22 -7 4 -6 -16
-10 -49 -10 -30 0 -58 5 -62 11 -4 8 9 10 45 8 39 -3 51 -1 51 10 0 8 10 25
22 38 21 23 23 23 36 6 7 -10 11 -27 10 -38z m-283 -37 c14 -21 14 -24 -2 -36
-15 -11 -20 -10 -30 5 -17 23 -16 53 1 53 8 0 22 -10 31 -22z m-1038 -170 c36
-15 83 -58 83 -75 0 -7 7 -13 15 -13 30 0 14 -27 -27 -46 -78 -35 -396 -21
-372 17 3 5 -2 6 -10 3 -8 -3 -22 -2 -30 3 -12 6 -8 13 21 31 19 13 32 18 28
10 -3 -7 3 -3 14 10 11 13 25 21 31 17 5 -3 10 -1 10 5 0 7 6 8 18 2 20 -10
102 5 102 19 0 6 5 7 10 4 6 -3 10 -2 10 4 0 20 58 26 97 9z m-247 -189 c48
-12 224 -11 293 2 32 5 62 7 68 4 10 -7 -64 -85 -81 -85 -4 0 -10 -3 -12 -7
-1 -5 -18 -16 -36 -25 -20 -11 -30 -13 -26 -5 4 6 -3 2 -15 -10 -28 -30 -45
-29 -69 2 -23 29 -37 31 -51 8 -6 -10 -11 -12 -11 -5 0 6 -9 12 -20 12 -12 0
-17 5 -14 13 3 8 -2 20 -11 27 -10 8 -15 9 -15 1 0 -14 -27 -14 -36 0 -3 6 -1
14 5 18 7 5 -5 16 -29 30 -70 39 -46 47 60 20z m431 -91 c1 -18 0 -46 -1 -63
-2 -35 -47 -153 -66 -176 -8 -8 -14 -20 -14 -26 0 -5 -11 -20 -25 -33 -22 -20
-27 -21 -54 -10 -17 7 -37 10 -46 6 -8 -3 -15 -1 -15 5 0 6 -5 7 -12 3 -8 -5
-9 -2 -5 10 4 11 -2 26 -17 41 -13 13 -19 26 -14 27 7 3 6 11 -2 25 -15 24 -8
51 17 60 10 3 25 13 35 22 9 9 55 40 102 70 47 30 86 58 86 62 0 5 7 9 15 9
10 0 15 -11 16 -32z"/>
<path d="M2746 1915 c-3 -10 -19 -15 -46 -15 -35 0 -40 -3 -40 -23 0 -23 25
-67 38 -67 13 0 61 67 68 94 7 28 -10 37 -20 11z"/>
</g>
</svg>
